<svg xmlns="http://www.w3.org/2000/svg" viewBox="0 0 100 100" width="100" height="100">
  <defs>
    <linearGradient id="grad1" x1="0%" y1="0%" x2="100%" y2="100%">
      <stop offset="0%" style="stop-color:#7c3aed;stop-opacity:1" />
      <stop offset="50%" style="stop-color:#6366f1;stop-opacity:1" />
      <stop offset="100%" style="stop-color:#4f46e5;stop-opacity:1" />
    </linearGradient>
  </defs>
  
  <!-- Background circle -->
  <circle cx="50" cy="50" r="45" fill="url(#grad1)" />
  
  <!-- Brain/Eagle hybrid icon -->
  <g fill="white" transform="translate(50, 50)">
    <!-- Brain outline -->
    <path d="M-15,-10 C-20,-15 -10,-20 0,-15 C10,-20 20,-15 15,-10 C18,-5 15,5 10,8 C5,12 0,10 -5,8 C-10,5 -18,-5 -15,-10 Z" opacity="0.9"/>
    
    <!-- Inner brain details -->
    <path d="M-8,-5 C-5,-8 5,-8 8,-5 C10,-2 8,2 5,4 C2,6 -2,6 -5,4 C-8,2 -10,-2 -8,-5 Z" opacity="0.7"/>
    
    <!-- Eagle eye -->
    <circle cx="3" cy="-2" r="2" fill="white"/>
    <circle cx="3" cy="-2" r="1" fill="#7c3aed"/>
    
    <!-- Wisdom lines -->
    <path d="M-12,0 L-8,0 M-12,3 L-9,3 M12,0 L8,0 M12,3 L9,3" stroke="white" stroke-width="1" opacity="0.8"/>
  </g>
  
  <!-- Legal scale accent -->
  <g transform="translate(50, 75)" fill="white" opacity="0.6">
    <rect x="-8" y="-2" width="16" height="1"/>
    <circle cx="-6" cy="-4" r="2" fill="none" stroke="white" stroke-width="0.5"/>
    <circle cx="6" cy="-4" r="2" fill="none" stroke="white" stroke-width="0.5"/>
  </g>
</svg>